<svg version="1.1" xmlns="http://www.w3.org/2000/svg" xmlns:xlink="http://www.w3.org/1999/xlink" width="50px" height="50px" viewBox="0,0,256,256"><g fill="#ffffff" fill-rule="nonzero" stroke="none" stroke-width="1" stroke-linecap="butt" stroke-linejoin="miter" stroke-miterlimit="10" stroke-dasharray="" stroke-dashoffset="0" font-family="none" font-weight="none" font-size="none" text-anchor="none" style="mix-blend-mode: normal"><g transform="scale(5.12,5.12)"><path d="M12.98438,0.98633c-0.55152,0.00862 -0.99193,0.46214 -0.98437,1.01367v1v2h2v-2v-1c0.0037,-0.2703 -0.10218,-0.53059 -0.29351,-0.72155c-0.19133,-0.19097 -0.45182,-0.29634 -0.72212,-0.29212zM18.98438,0.98633c-0.55152,0.00862 -0.99193,0.46214 -0.98437,1.01367v1v2h2v-2v-1c0.0037,-0.2703 -0.10218,-0.53059 -0.29351,-0.72155c-0.19133,-0.19097 -0.45182,-0.29634 -0.72212,-0.29212zM24.98438,0.98633c-0.55152,0.00862 -0.99193,0.46214 -0.98437,1.01367v1v2h2v-2v-1c0.0037,-0.2703 -0.10218,-0.53059 -0.29351,-0.72155c-0.19133,-0.19097 -0.45182,-0.29634 -0.72212,-0.29212zM30.98438,0.98633c-0.55152,0.00862 -0.99193,0.46214 -0.98437,1.01367v1v2h2v-2v-1c0.0037,-0.2703 -0.10218,-0.53059 -0.29351,-0.72155c-0.19133,-0.19097 -0.45182,-0.29634 -0.72212,-0.29212zM36.98438,0.98633c-0.55152,0.00862 -0.99193,0.46214 -0.98437,1.01367v1v2h2v-2v-1c0.0037,-0.2703 -0.10218,-0.53059 -0.29351,-0.72155c-0.19133,-0.19097 -0.45182,-0.29634 -0.72212,-0.29212zM9,6c-1.64497,0 -3,1.35503 -3,3v32c0,1.64497 1.35503,3 3,3h32c1.64497,0 3,-1.35503 3,-3v-32c0,-1.64497 -1.35503,-3 -3,-3zM9,8h32c0.56503,0 1,0.43497 1,1v32c0,0.56503 -0.43497,1 -1,1h-32c-0.56503,0 -1,-0.43497 -1,-1v-32c0,-0.56503 0.43497,-1 1,-1zM2,12c-0.36064,-0.0051 -0.69608,0.18438 -0.87789,0.49587c-0.18181,0.3115 -0.18181,0.69676 0,1.00825c0.18181,0.3115 0.51725,0.50097 0.87789,0.49587h1h2v-2h-2zM45,12v2h2h1c0.36064,0.0051 0.69608,-0.18438 0.87789,-0.49587c0.18181,-0.3115 0.18181,-0.69676 0,-1.00825c-0.18181,-0.3115 -0.51725,-0.50097 -0.87789,-0.49587h-1zM16,17c-0.55226,0.00006 -0.99994,0.44774 -1,1v14c0.00006,0.55226 0.44774,0.99994 1,1h18c0.55226,-0.00006 0.99994,-0.44774 1,-1v-14c-0.00006,-0.55226 -0.44774,-0.99994 -1,-1zM2,18c-0.36064,-0.0051 -0.69608,0.18438 -0.87789,0.49587c-0.18181,0.3115 -0.18181,0.69676 0,1.00825c0.18181,0.3115 0.51725,0.50097 0.87789,0.49587h1h2v-2h-2zM45,18v2h2h1c0.36064,0.0051 0.69608,-0.18438 0.87789,-0.49587c0.18181,-0.3115 0.18181,-0.69676 0,-1.00825c-0.18181,-0.3115 -0.51725,-0.50097 -0.87789,-0.49587h-1zM17,19h16v12h-16zM2,24c-0.36064,-0.0051 -0.69608,0.18438 -0.87789,0.49587c-0.18181,0.3115 -0.18181,0.69676 0,1.00825c0.18181,0.3115 0.51725,0.50097 0.87789,0.49587h1h2v-2h-2zM45,24v2h2h1c0.36064,0.0051 0.69608,-0.18438 0.87789,-0.49587c0.18181,-0.3115 0.18181,-0.69676 0,-1.00825c-0.18181,-0.3115 -0.51725,-0.50097 -0.87789,-0.49587h-1zM2,30c-0.36064,-0.0051 -0.69608,0.18438 -0.87789,0.49587c-0.18181,0.3115 -0.18181,0.69676 0,1.00825c0.18181,0.3115 0.51725,0.50097 0.87789,0.49587h1h2v-2h-2zM45,30v2h2h1c0.36064,0.0051 0.69608,-0.18438 0.87789,-0.49587c0.18181,-0.3115 0.18181,-0.69676 0,-1.00825c-0.18181,-0.3115 -0.51725,-0.50097 -0.87789,-0.49587h-1zM2,36c-0.36064,-0.0051 -0.69608,0.18438 -0.87789,0.49587c-0.18181,0.3115 -0.18181,0.69676 0,1.00825c0.18181,0.3115 0.51725,0.50097 0.87789,0.49587h1h2v-2h-2zM45,36v2h2h1c0.36064,0.0051 0.69608,-0.18438 0.87789,-0.49587c0.18181,-0.3115 0.18181,-0.69676 0,-1.00825c-0.18181,-0.3115 -0.51725,-0.50097 -0.87789,-0.49587h-1zM12,45v2v1c-0.0051,0.36064 0.18438,0.69608 0.49587,0.87789c0.3115,0.18181 0.69676,0.18181 1.00825,0c0.3115,-0.18181 0.50097,-0.51725 0.49587,-0.87789v-1v-2zM18,45v2v1c-0.0051,0.36064 0.18438,0.69608 0.49587,0.87789c0.3115,0.18181 0.69676,0.18181 1.00825,0c0.3115,-0.18181 0.50097,-0.51725 0.49587,-0.87789v-1v-2zM24,45v2v1c-0.0051,0.36064 0.18438,0.69608 0.49587,0.87789c0.3115,0.18181 0.69676,0.18181 1.00825,0c0.3115,-0.18181 0.50097,-0.51725 0.49587,-0.87789v-1v-2zM30,45v2v1c-0.0051,0.36064 0.18438,0.69608 0.49587,0.87789c0.3115,0.18181 0.69676,0.18181 1.00825,0c0.3115,-0.18181 0.50097,-0.51725 0.49587,-0.87789v-1v-2zM36,45v2v1c-0.0051,0.36064 0.18438,0.69608 0.49587,0.87789c0.3115,0.18181 0.69676,0.18181 1.00825,0c0.3115,-0.18181 0.50097,-0.51725 0.49587,-0.87789v-1v-2z"></path></g></g></svg>