<svg version="1.1" xmlns="http://www.w3.org/2000/svg" xmlns:xlink="http://www.w3.org/1999/xlink" width="50px" height="50px" viewBox="0,0,256,256"><g fill="#ffffff" fill-rule="nonzero" stroke="none" stroke-width="1" stroke-linecap="butt" stroke-linejoin="miter" stroke-miterlimit="10" stroke-dasharray="" stroke-dashoffset="0" font-family="none" font-weight="none" font-size="none" text-anchor="none" style="mix-blend-mode: normal"><g transform="scale(5.12,5.12)"><path d="M23,2v4.08594c-10.65624,1.00959 -19.01172,9.99646 -19.01172,20.91406c0,11.59235 9.41937,21.01172 21.01172,21.01172c11.59235,0 21.01172,-9.41937 21.01172,-21.01172c0,-10.9176 -8.35548,-19.90447 -19.01172,-20.91406v-4.08594zM42.04297,3l-2.82812,2.82813l1.29102,1.29102l-1.50586,1.50781l1.6582,1.6582l1.50586,-1.50781l1.29297,1.29297l2.82813,-2.82812zM25,8.01172c10.49904,0 18.98828,8.48924 18.98828,18.98828c0,10.49904 -8.48924,18.98828 -18.98828,18.98828c-10.49904,0 -18.98828,-8.48924 -18.98828,-18.98828c0,-10.49904 8.48924,-18.98828 18.98828,-18.98828zM24.98438,11.97461c-0.55804,0.0085 -1.00377,0.46734 -0.99609,1.02539v11.17773c-1.19189,0.42696 -1.98744,1.55621 -1.98828,2.82227c0.00166,1.26534 0.79707,2.39359 1.98828,2.82031v2.17969c0,0.55876 0.45296,1.01172 1.01172,1.01172c0.55876,0 1.01172,-0.45296 1.01172,-1.01172v-2.17773c1.19189,-0.42696 1.98744,-1.55621 1.98828,-2.82227c-0.00166,-1.26534 -0.79707,-2.39359 -1.98828,-2.82031v-11.17969c0.00376,-0.27343 -0.10333,-0.53673 -0.29688,-0.7299c-0.19354,-0.19318 -0.45705,-0.29977 -0.73047,-0.29549z"></path></g></g></svg>