<svg version="1.1" xmlns="http://www.w3.org/2000/svg" xmlns:xlink="http://www.w3.org/1999/xlink" width="24px" height="24px" viewBox="0,0,256,256"><g fill="#ffffff" fill-rule="nonzero" stroke="none" stroke-width="1" stroke-linecap="butt" stroke-linejoin="miter" stroke-miterlimit="10" stroke-dasharray="" stroke-dashoffset="0" font-family="none" font-weight="none" font-size="none" text-anchor="none" style="mix-blend-mode: normal"><g transform="scale(10.66667,10.66667)"><path d="M11,0v3h2v-3zM4.22266,2.80859l-1.41406,1.41406l2.12109,2.12109l1.41406,-1.41406zM19.77734,2.80859l-2.12109,2.12109l1.41406,1.41406l2.12109,-2.12109zM12,5c-3.85433,0 -7,3.14567 -7,7c0,2.76779 1.65612,5.10224 4,6.23438v2.76563c0,1.09306 0.90694,2 2,2h2c1.09306,0 2,-0.90694 2,-2v-2.76562c2.34388,-1.13214 4,-3.46659 4,-6.23437c0,-3.85433 -3.14567,-7 -7,-7zM12,7c2.77367,0 5,2.22633 5,5c0,2.18434 -1.39467,4.02285 -3.33398,4.70898l-0.66602,0.23438v4.05664h-2v-4.05664l-0.66602,-0.23437c-1.93932,-0.68613 -3.33398,-2.52464 -3.33398,-4.70898c0,-2.77367 2.22633,-5 5,-5zM0,11v2h3v-2zM21,11v2h3v-2zM4.92969,17.65625l-2.12109,2.12109l1.41406,1.41406l2.12109,-2.12109zM19.07031,17.65625l-1.41406,1.41406l2.12109,2.12109l1.41406,-1.41406z"></path></g></g></svg>